<?xml version="1.0" encoding="UTF-8" standalone="no"?>
<!-- Created with Inkscape (http://www.inkscape.org/) -->

<svg
   xmlns:dc="http://purl.org/dc/elements/1.1/"
   xmlns:cc="http://creativecommons.org/ns#"
   xmlns:rdf="http://www.w3.org/1999/02/22-rdf-syntax-ns#"
   xmlns:svg="http://www.w3.org/2000/svg"
   xmlns="http://www.w3.org/2000/svg"
   xmlns:sodipodi="http://sodipodi.sourceforge.net/DTD/sodipodi-0.dtd"
   xmlns:inkscape="http://www.inkscape.org/namespaces/inkscape"
   id="svg2"
   version="1.1"
   inkscape:version="0.91 r13725"
   xml:space="preserve"
   width="699.12622"
   height="485.35071"
   viewBox="0 0 699.12622 485.35071"
   sodipodi:docname="DP.svg"><metadata
     id="metadata8"><rdf:RDF><cc:Work
         rdf:about=""><dc:format>image/svg+xml</dc:format><dc:type
           rdf:resource="http://purl.org/dc/dcmitype/StillImage" /><dc:title></dc:title></cc:Work></rdf:RDF></metadata><defs
     id="defs6" /><sodipodi:namedview
     pagecolor="#ffffff"
     bordercolor="#666666"
     borderopacity="1"
     objecttolerance="10"
     gridtolerance="10"
     guidetolerance="10"
     inkscape:pageopacity="0"
     inkscape:pageshadow="2"
     inkscape:window-width="1920"
     inkscape:window-height="1005"
     id="namedview4"
     showgrid="false"
     inkscape:zoom="1.3753123"
     inkscape:cx="533.52196"
     inkscape:cy="236.08157"
     inkscape:window-x="-9"
     inkscape:window-y="-9"
     inkscape:window-maximized="1"
     inkscape:current-layer="g12" /><g
     id="g10"
     inkscape:groupmode="layer"
     inkscape:label="DP"
     transform="matrix(1.25,0,0,-1.25,0,485.35072)"><g
       id="g12"><g
         id="g14"
         transform="matrix(1.333677,0,0,-0.9983978,-0.12927827,387.96953)"><path
           d="m 3.43,2 553.871,0 0,384.281 -553.871,0 L 3.43,2 Z"
           style="fill:none;stroke:#000000;stroke-width:4;stroke-linecap:butt;stroke-linejoin:miter;stroke-miterlimit:4;stroke-dasharray:none;stroke-opacity:1"
           id="path16"
           inkscape:connector-curvature="0" /></g><g
         id="g18"
         transform="matrix(1.333677,0,0,-0.9983978,-0.12927827,387.96953)"><path
           d="m 53.125,165.258 c 0,4.16 -2.43,7.535 -5.422,7.535 -2.996,0 -5.422,-3.375 -5.422,-7.535 0,-4.164 2.426,-7.535 5.422,-7.535 2.992,0 5.422,3.371 5.422,7.535 z"
           style="fill:#000000;fill-opacity:1;fill-rule:nonzero;stroke:#000000;stroke-width:4.2180419;stroke-linecap:butt;stroke-linejoin:miter;stroke-miterlimit:4;stroke-dasharray:none;stroke-opacity:1"
           id="path20"
           inkscape:connector-curvature="0" /></g><g
         id="g22"
         transform="matrix(1.333677,0,0,-0.9983978,-0.12927827,387.96953)"><path
           d="m 474.176,211.723 c 0,4.16 -2.43,7.535 -5.422,7.535 -2.992,0 -5.422,-3.375 -5.422,-7.535 0,-4.164 2.43,-7.535 5.422,-7.535 2.992,0 5.422,3.371 5.422,7.535 z"
           style="fill:#000000;fill-opacity:1;fill-rule:nonzero;stroke:#000000;stroke-width:4.2180419;stroke-linecap:butt;stroke-linejoin:miter;stroke-miterlimit:4;stroke-dasharray:none;stroke-opacity:1"
           id="path24"
           inkscape:connector-curvature="0" /></g><g
         id="g26"
         transform="matrix(1.333677,0,0,-0.9983978,-0.12927827,387.96953)"><path
           d="m 176.008,92.418 c 0,4.164 -2.43,7.535 -5.422,7.535 -2.996,0 -5.422,-3.371 -5.422,-7.535 0,-4.16 2.426,-7.535 5.422,-7.535 2.992,0 5.422,3.375 5.422,7.535 z"
           style="fill:#000000;fill-opacity:1;fill-rule:nonzero;stroke:#000000;stroke-width:4.2180419;stroke-linecap:butt;stroke-linejoin:miter;stroke-miterlimit:4;stroke-dasharray:none;stroke-opacity:1"
           id="path28"
           inkscape:connector-curvature="0" /></g><g
         id="g30"
         transform="matrix(1.333677,0,0,-0.9983978,-0.12927827,387.96953)"><path
           d="m 333.223,93.676 c 0,4.16 -2.426,7.535 -5.422,7.535 -2.992,0 -5.422,-3.375 -5.422,-7.535 0,-4.164 2.43,-7.535 5.422,-7.535 2.996,0 5.422,3.371 5.422,7.535 z"
           style="fill:#000000;fill-opacity:1;fill-rule:nonzero;stroke:#000000;stroke-width:4.2180419;stroke-linecap:butt;stroke-linejoin:miter;stroke-miterlimit:4;stroke-dasharray:none;stroke-opacity:1"
           id="path32"
           inkscape:connector-curvature="0" /></g><g
         id="g34"
         transform="matrix(1.333677,0,0,-0.9983978,-0.12927827,387.96953)"><path
           d="m 185.043,295.863 c 0,4.16 -2.43,7.535 -5.422,7.535 -2.996,0 -5.422,-3.375 -5.422,-7.535 0,-4.164 2.426,-7.535 5.422,-7.535 2.992,0 5.422,3.371 5.422,7.535 z"
           style="fill:#000000;fill-opacity:1;fill-rule:nonzero;stroke:#000000;stroke-width:4.2180419;stroke-linecap:butt;stroke-linejoin:miter;stroke-miterlimit:4;stroke-dasharray:none;stroke-opacity:1"
           id="path36"
           inkscape:connector-curvature="0" /></g><g
         id="g38"
         transform="matrix(1.333677,0,0,-0.9983978,-0.12927827,387.96953)"><path
           d="m 334.125,303.398 c 0,4.161 -2.426,7.532 -5.422,7.532 -2.992,0 -5.418,-3.371 -5.418,-7.532 0,-4.164 2.426,-7.535 5.418,-7.535 2.996,0 5.422,3.371 5.422,7.535 z"
           style="fill:#000000;fill-opacity:1;fill-rule:nonzero;stroke:#000000;stroke-width:4.2180419;stroke-linecap:butt;stroke-linejoin:miter;stroke-miterlimit:4;stroke-dasharray:none;stroke-opacity:1"
           id="path40"
           inkscape:connector-curvature="0" /></g><g
         id="g42"
         transform="matrix(1.333677,0,0,-0.9983978,-0.12927827,387.96953)"><path
           d="m 253.711,191.629 c 0,4.16 -2.426,7.535 -5.422,7.535 -2.992,0 -5.422,-3.375 -5.422,-7.535 0,-4.16 2.43,-7.535 5.422,-7.535 2.996,0 5.422,3.375 5.422,7.535 z"
           style="fill:#000000;fill-opacity:1;fill-rule:nonzero;stroke:#000000;stroke-width:4.2180419;stroke-linecap:butt;stroke-linejoin:miter;stroke-miterlimit:4;stroke-dasharray:none;stroke-opacity:1"
           id="path44"
           inkscape:connector-curvature="0" /></g><g
         id="g46"
         transform="matrix(1.333677,0,0,-0.9983978,-0.12927827,387.96953)"><path
           d="m 492.246,48.465 c 0,4.16 -2.426,7.535 -5.422,7.535 -2.992,0 -5.422,-3.375 -5.422,-7.535 0,-4.16 2.43,-7.535 5.422,-7.535 2.996,0 5.422,3.375 5.422,7.535 z"
           style="fill:#000000;fill-opacity:1;fill-rule:nonzero;stroke:#000000;stroke-width:4.2180419;stroke-linecap:butt;stroke-linejoin:miter;stroke-miterlimit:4;stroke-dasharray:none;stroke-opacity:1"
           id="path48"
           inkscape:connector-curvature="0" /></g><g
         id="g50"
         transform="matrix(1.333677,0,0,-0.9983978,-0.12927827,387.96953)"><path
           d="m 169.68,92.418 9.035,202.187 68.672,-102.976 80.414,110.512 0,-208.465"
           style="fill:none;stroke:#000000;stroke-width:4.80000019;stroke-linecap:butt;stroke-linejoin:miter;stroke-miterlimit:4;stroke-dasharray:none;stroke-opacity:1"
           id="path52"
           inkscape:connector-curvature="0" /></g><g
         id="g54"
         transform="matrix(1.333677,0,0,-0.9983978,-0.12927827,387.96953)"><path
           d="M 46.801,165.258 171.488,92.418 249.191,192.883 327.801,94.93 488.633,48.465 556.398,386.281 467.852,211.723 326.898,302.141 4.332,385.023 179.621,295.863 46.801,165.258 Z"
           style="fill:none;stroke:#000000;stroke-width:3.16353106;stroke-linecap:butt;stroke-linejoin:miter;stroke-miterlimit:4;stroke-dasharray:none;stroke-opacity:0.69729698"
           id="path56"
           inkscape:connector-curvature="0" /></g><g
         id="g58"
         transform="matrix(1.333677,0,0,-0.9983978,-0.12927827,387.96953)"><path
           d="m 178.715,297.117 149.988,5.024 229.5,82.882"
           style="fill:none;stroke:#000000;stroke-width:3.16353106;stroke-linecap:butt;stroke-linejoin:miter;stroke-miterlimit:4;stroke-dasharray:none;stroke-opacity:0.69803898"
           id="path60"
           inkscape:connector-curvature="0" /></g><g
         id="g62"
         transform="matrix(1.333677,0,0,-0.9983978,-0.12927827,387.96953)"><path
           d="M 328.703,96.188 469.656,212.977 485.922,43.441 3.43,4.512 l 44.273,162 -43.371,219.769"
           style="fill:none;stroke:#000000;stroke-width:3.16353106;stroke-linecap:butt;stroke-linejoin:miter;stroke-miterlimit:4;stroke-dasharray:none;stroke-opacity:0.69803898"
           id="path64"
           inkscape:connector-curvature="0" /></g><g
         id="g66"
         transform="matrix(1.333677,0,0,-0.9983978,-0.12927827,387.96953)"><path
           d="m 327.801,93.676 -156.313,0 317.145,-47.723 69.57,-42.699"
           style="fill:none;stroke:#000000;stroke-width:3.16353106;stroke-linecap:butt;stroke-linejoin:miter;stroke-miterlimit:4;stroke-dasharray:none;stroke-opacity:0.69803898"
           id="path68"
           inkscape:connector-curvature="0" /></g><g
         id="g70"
         transform="matrix(1.333677,0,0,-0.9983978,-0.12927827,387.96953)"><path
           d="M 170.586,91.164 0.719,4.512"
           style="fill:none;stroke:#000000;stroke-width:3.16353106;stroke-linecap:butt;stroke-linejoin:miter;stroke-miterlimit:4;stroke-dasharray:none;stroke-opacity:0.69803898"
           id="path72"
           inkscape:connector-curvature="0" /></g><g
         id="g74"
         transform="matrix(1.333677,0,0,-0.9983978,-0.12927827,387.96953)"><path
           d="m 47.703,165.258 122.883,-40.188 61.441,89.164 33.43,1.254 61.441,-91.675 140.954,90.421 -140.954,51.489 -18.07,12.558 -112.945,-8.793 -19.875,-10.047 -128.305,-94.183 z"
           style="fill:none;stroke:#000000;stroke-width:0.80000001;stroke-linecap:butt;stroke-linejoin:miter;stroke-miterlimit:4;stroke-dasharray:3.2, 1.6;stroke-dashoffset:0;stroke-opacity:1"
           id="path76"
           inkscape:connector-curvature="0" /></g><g
         id="g78"
         transform="matrix(1.333677,0,0,-0.9983978,-0.12927827,387.96953)"><path
           d="m 173.297,128.836 22.586,139.398 70.476,-54 62.344,51.489"
           style="fill:none;stroke:#000000;stroke-width:0.80000001;stroke-linecap:butt;stroke-linejoin:miter;stroke-miterlimit:4;stroke-dasharray:3.2, 1.6;stroke-dashoffset:0;stroke-opacity:1"
           id="path80"
           inkscape:connector-curvature="0" /></g><g
         id="g82"
         transform="matrix(1.333677,0,0,-0.9983978,-0.12927827,387.96953)"><path
           d="m 176.91,259.441 55.117,-48.976 77.657,66.898 15.406,-151.039"
           style="fill:none;stroke:#000000;stroke-width:0.80000001;stroke-linecap:butt;stroke-linejoin:miter;stroke-miterlimit:4;stroke-dasharray:3.2, 1.6;stroke-dashoffset:0;stroke-opacity:1"
           id="path84"
           inkscape:connector-curvature="0" /></g><g
         id="g86"
         transform="matrix(1.333677,0,0,-0.9983978,-0.12927827,387.96953)"><path
           d="m 170.824,100.898 0,21.504"
           style="fill:none;stroke:#0000ff;stroke-width:5.15461588;stroke-linecap:butt;stroke-linejoin:miter;stroke-miterlimit:4;stroke-dasharray:none;stroke-opacity:1"
           id="path88"
           inkscape:connector-curvature="0" /></g><g
         id="g90"
         transform="matrix(1.333677,0,0,-0.9983978,-0.12927827,387.96953)"><path
           d="m 177.98,261.875 0,25.059"
           style="fill:none;stroke:#0000ff;stroke-width:5.09953499;stroke-linecap:butt;stroke-linejoin:miter;stroke-miterlimit:4;stroke-dasharray:none;stroke-opacity:1"
           id="path92"
           inkscape:connector-curvature="0" /></g><g
         id="g94"
         transform="matrix(1.333677,0,0,-0.9983978,-0.12927827,387.96953)"><path
           d="m 183.09,288.113 10.609,-15.679"
           style="fill:none;stroke:#0000ff;stroke-width:4.80000019;stroke-linecap:butt;stroke-linejoin:miter;stroke-miterlimit:4;stroke-dasharray:none;stroke-opacity:1"
           id="path96"
           inkscape:connector-curvature="0" /></g><g
         id="g98"
         transform="matrix(1.333677,0,0,-0.9983978,-0.12927827,387.96953)"><path
           d="m 235.863,208.5 7.926,-10.078"
           style="fill:none;stroke:#0000ff;stroke-width:4.80000019;stroke-linecap:butt;stroke-linejoin:miter;stroke-miterlimit:4;stroke-dasharray:none;stroke-opacity:1"
           id="path100"
           inkscape:connector-curvature="0" /></g><g
         id="g102"
         transform="matrix(1.333677,0,0,-0.9983978,-0.12927827,387.96953)"><path
           d="m 252.578,198.523 8.102,12.184"
           style="fill:none;stroke:#0000ff;stroke-width:4.80000019;stroke-linecap:butt;stroke-linejoin:miter;stroke-miterlimit:4;stroke-dasharray:none;stroke-opacity:1"
           id="path104"
           inkscape:connector-curvature="0" /></g><g
         id="g106"
         transform="matrix(1.333677,0,0,-0.9983978,-0.12927827,387.96953)"><path
           d="m 311.574,280.523 11.758,16.372"
           style="fill:none;stroke:#0000ff;stroke-width:4.80000019;stroke-linecap:butt;stroke-linejoin:miter;stroke-miterlimit:4;stroke-dasharray:none;stroke-opacity:1"
           id="path108"
           inkscape:connector-curvature="0" /></g><g
         id="g110"
         transform="matrix(1.333677,0,0,-0.9983978,-0.12927827,387.96953)"><path
           d="m 327.988,294.512 -0.629,-27.723"
           style="fill:none;stroke:#0000ff;stroke-width:5.22005415;stroke-linecap:butt;stroke-linejoin:miter;stroke-miterlimit:4;stroke-dasharray:none;stroke-opacity:1"
           id="path112"
           inkscape:connector-curvature="0" /></g><g
         id="g114"
         transform="matrix(1.333677,0,0,-0.9983978,-0.12927827,387.96953)"><path
           d="m 327.355,122.656 0,-19.984"
           style="fill:none;stroke:#0000ff;stroke-width:5.36710119;stroke-linecap:butt;stroke-linejoin:miter;stroke-miterlimit:4;stroke-dasharray:none;stroke-opacity:1"
           id="path116"
           inkscape:connector-curvature="0" /></g><text
         transform="scale(0.99238911,-1.0076693)"
         style="font-variant:normal;font-weight:normal;font-size:25.62321281px;font-family:Verdana;-inkscape-font-specification:Verdana;writing-mode:lr-tb;fill:#000000;fill-opacity:1;fill-rule:nonzero;stroke:none"
         id="text118"
         x="21.947262"
         y="-212.22495"><tspan
           x="21.947262"
           y="-212.22495"
           id="tspan120">A</tspan><tspan
           x="489.40131"
           y="-169.76205"
           id="tspan122" /></text>
<text
         transform="scale(1.0545328,-0.94828725)"
         style="font-variant:normal;font-weight:normal;font-size:19.95169258px;font-family:Verdana;-inkscape-font-specification:Verdana;writing-mode:lr-tb;fill:#000000;fill-opacity:1;fill-rule:nonzero;stroke:none"
         id="text124"
         x="179.81703"
         y="-252.28444"><tspan
           x="179.81703"
           y="-252.28444"
           id="tspan126">F</tspan></text>
<text
         transform="scale(1.0545328,-0.94828725)"
         style="font-variant:normal;font-weight:normal;font-size:12.96859932px;font-family:Verdana;-inkscape-font-specification:Verdana;writing-mode:lr-tb;fill:#000000;fill-opacity:1;fill-rule:nonzero;stroke:none"
         id="text128"
         x="191.27368"
         y="-248.29408"><tspan
           x="191.27368 199.50877"
           y="-248.29408"
           sodipodi:role="line"
           id="tspan130">11</tspan></text>
<g
         id="g132"
         transform="matrix(1.333677,0,0,-0.9983978,-0.12927827,387.96953)"><path
           d="m 47.465,167.281 124.574,26.285 42.856,46.286 70.859,5.714 41.711,-49.144 140.574,16.574"
           style="fill:none;stroke:#000000;stroke-width:0.80000001;stroke-linecap:butt;stroke-linejoin:miter;stroke-miterlimit:4;stroke-dasharray:3.2, 1.6;stroke-dashoffset:0;stroke-opacity:1"
           id="path134"
           inkscape:connector-curvature="0" /></g><g
         id="g136"
         transform="matrix(1.333677,0,0,-0.9983978,-0.12927827,387.96953)"><path
           d="m 170.895,127.852 44.57,110.859 50.289,-23.43 60.43,-18.453 c -6.094,27.406 -9.766,53.309 -15.86,80.168 l -95.429,-36.574 -38.856,19.43"
           style="fill:none;stroke:#000000;stroke-width:0.80000001;stroke-linecap:butt;stroke-linejoin:miter;stroke-miterlimit:4;stroke-dasharray:3.2, 1.6;stroke-dashoffset:0;stroke-opacity:1"
           id="path138"
           inkscape:connector-curvature="0" /></g><g
         id="g140"
         transform="matrix(1.333677,0,0,-0.9983978,-0.12927827,387.96953)"><path
           d="m 326.039,126.422 -40.859,119.43 -51.426,-33.715 -0.289,0.285 -58.57,-15.711 20.859,71.711 90.285,-22.856 41.141,19.145"
           style="fill:none;stroke:#000000;stroke-width:0.80000001;stroke-linecap:butt;stroke-linejoin:miter;stroke-miterlimit:4;stroke-dasharray:3.2, 1.6;stroke-dashoffset:0;stroke-opacity:1"
           id="path142"
           inkscape:connector-curvature="0" /></g><g
         id="g144"
         transform="matrix(1.333677,0,0,-0.9983978,-0.12927827,387.96953)"><path
           d="m 332.238,195.852 c 0,2.636 -2.136,4.769 -4.773,4.769 -2.633,0 -4.77,-2.133 -4.77,-4.769 0,-2.633 2.137,-4.77 4.77,-4.77 2.637,0 4.773,2.137 4.773,4.77 z"
           style="fill:#008000;fill-opacity:1;fill-rule:nonzero;stroke:#008000;stroke-width:0.858675;stroke-linecap:butt;stroke-linejoin:miter;stroke-miterlimit:4;stroke-dasharray:none;stroke-opacity:1"
           id="path146"
           inkscape:connector-curvature="0" /></g><g
         id="g148"
         transform="matrix(1.333677,0,0,-0.9983978,-0.12927827,387.96953)"><path
           d="m 332.809,127.625 c 0,2.633 -2.137,4.77 -4.77,4.77 -2.637,0 -4.773,-2.137 -4.773,-4.77 0,-2.637 2.136,-4.773 4.773,-4.773 2.633,0 4.77,2.136 4.77,4.773 z"
           style="fill:#008000;fill-opacity:1;fill-rule:nonzero;stroke:#008000;stroke-width:0.858675;stroke-linecap:butt;stroke-linejoin:miter;stroke-miterlimit:4;stroke-dasharray:none;stroke-opacity:1"
           id="path150"
           inkscape:connector-curvature="0" /></g><g
         id="g152"
         transform="matrix(1.333677,0,0,-0.9983978,-0.12927827,387.96953)"><path
           d="m 332.238,263.852 c 0,2.636 -2.136,4.769 -4.773,4.769 -2.633,0 -4.77,-2.133 -4.77,-4.769 0,-2.633 2.137,-4.77 4.77,-4.77 2.637,0 4.773,2.137 4.773,4.77 z"
           style="fill:#008000;fill-opacity:1;fill-rule:nonzero;stroke:#008000;stroke-width:0.858675;stroke-linecap:butt;stroke-linejoin:miter;stroke-miterlimit:4;stroke-dasharray:none;stroke-opacity:1"
           id="path154"
           inkscape:connector-curvature="0" /></g><g
         id="g156"
         transform="matrix(1.333677,0,0,-0.9983978,-0.12927827,387.96953)"><path
           d="m 269.379,212.996 c 0,2.633 -2.133,4.77 -4.77,4.77 -2.632,0 -4.769,-2.137 -4.769,-4.77 0,-2.637 2.137,-4.773 4.769,-4.773 2.637,0 4.77,2.136 4.77,4.773 z"
           style="fill:#008000;fill-opacity:1;fill-rule:nonzero;stroke:#008000;stroke-width:0.858675;stroke-linecap:butt;stroke-linejoin:miter;stroke-miterlimit:4;stroke-dasharray:none;stroke-opacity:1"
           id="path158"
           inkscape:connector-curvature="0" /></g><g
         id="g160"
         transform="matrix(1.333677,0,0,-0.9983978,-0.12927827,387.96953)"><path
           d="m 313.953,275.852 c 0,2.636 -2.137,4.769 -4.773,4.769 -2.633,0 -4.77,-2.133 -4.77,-4.769 0,-2.633 2.137,-4.77 4.77,-4.77 2.636,0 4.773,2.137 4.773,4.77 z"
           style="fill:#008000;fill-opacity:1;fill-rule:nonzero;stroke:#008000;stroke-width:0.858675;stroke-linecap:butt;stroke-linejoin:miter;stroke-miterlimit:4;stroke-dasharray:none;stroke-opacity:1"
           id="path162"
           inkscape:connector-curvature="0" /></g><g
         id="g164"
         transform="matrix(1.333677,0,0,-0.9983978,-0.12927827,387.96953)"><path
           d="m 200.809,267.281 c 0,2.633 -2.137,4.77 -4.77,4.77 -2.637,0 -4.773,-2.137 -4.773,-4.77 0,-2.636 2.136,-4.769 4.773,-4.769 2.633,0 4.77,2.133 4.77,4.769 z"
           style="fill:#008000;fill-opacity:1;fill-rule:nonzero;stroke:#008000;stroke-width:0.858675;stroke-linecap:butt;stroke-linejoin:miter;stroke-miterlimit:4;stroke-dasharray:none;stroke-opacity:1"
           id="path166"
           inkscape:connector-curvature="0" /></g><g
         id="g168"
         transform="matrix(1.333677,0,0,-0.9983978,-0.12927827,387.96953)"><path
           d="m 237.379,211.281 c 0,2.633 -2.133,4.77 -4.77,4.77 -2.632,0 -4.769,-2.137 -4.769,-4.77 0,-2.636 2.137,-4.769 4.769,-4.769 2.637,0 4.77,2.133 4.77,4.769 z"
           style="fill:#008000;fill-opacity:1;fill-rule:nonzero;stroke:#008000;stroke-width:0.858675;stroke-linecap:butt;stroke-linejoin:miter;stroke-miterlimit:4;stroke-dasharray:none;stroke-opacity:1"
           id="path170"
           inkscape:connector-curvature="0" /></g><g
         id="g172"
         transform="matrix(1.333677,0,0,-0.9983978,-0.12927827,387.96953)"><path
           d="m 181.953,258.711 c 0,2.633 -2.137,4.769 -4.773,4.769 -2.633,0 -4.77,-2.136 -4.77,-4.769 0,-2.637 2.137,-4.773 4.77,-4.773 2.636,0 4.773,2.136 4.773,4.773 z"
           style="fill:#008000;fill-opacity:1;fill-rule:nonzero;stroke:#008000;stroke-width:0.858675;stroke-linecap:butt;stroke-linejoin:miter;stroke-miterlimit:4;stroke-dasharray:none;stroke-opacity:1"
           id="path174"
           inkscape:connector-curvature="0" /></g><g
         id="g176"
         transform="matrix(1.333677,0,0,-0.9983978,-0.12927827,387.96953)"><path
           d="m 175.094,127.852 c 0,2.636 -2.137,4.769 -4.77,4.769 -2.636,0 -4.769,-2.133 -4.769,-4.769 0,-2.633 2.133,-4.77 4.769,-4.77 2.633,0 4.77,2.137 4.77,4.77 z"
           style="fill:#008000;fill-opacity:1;fill-rule:nonzero;stroke:#008000;stroke-width:0.858675;stroke-linecap:butt;stroke-linejoin:miter;stroke-miterlimit:4;stroke-dasharray:none;stroke-opacity:1"
           id="path178"
           inkscape:connector-curvature="0" /></g><g
         id="g180"
         transform="matrix(1.333677,0,0,-0.9983978,-0.12927827,387.96953)"><path
           d="m 178.523,195.281 c 0,2.633 -2.136,4.77 -4.769,4.77 -2.637,0 -4.774,-2.137 -4.774,-4.77 0,-2.636 2.137,-4.769 4.774,-4.769 2.633,0 4.769,2.133 4.769,4.769 z"
           style="fill:#008000;fill-opacity:1;fill-rule:nonzero;stroke:#008000;stroke-width:0.858675;stroke-linecap:butt;stroke-linejoin:miter;stroke-miterlimit:4;stroke-dasharray:none;stroke-opacity:1"
           id="path182"
           inkscape:connector-curvature="0" /></g><g
         id="g184"
         transform="matrix(1.333677,0,0,-0.9983978,-0.12927827,387.96953)"><path
           d="m 220.238,238.711 c 0,2.633 -2.136,4.769 -4.773,4.769 -2.633,0 -4.77,-2.136 -4.77,-4.769 0,-2.637 2.137,-4.773 4.77,-4.773 2.637,0 4.773,2.136 4.773,4.773 z"
           style="fill:#008000;fill-opacity:1;fill-rule:nonzero;stroke:#008000;stroke-width:0.858675;stroke-linecap:butt;stroke-linejoin:miter;stroke-miterlimit:4;stroke-dasharray:none;stroke-opacity:1"
           id="path186"
           inkscape:connector-curvature="0" /></g><g
         id="g188"
         transform="matrix(1.333677,0,0,-0.9983978,-0.12927827,387.96953)"><path
           d="m 289.953,244.422 c 0,2.637 -2.137,4.773 -4.773,4.773 -2.633,0 -4.77,-2.136 -4.77,-4.773 0,-2.633 2.137,-4.77 4.77,-4.77 2.636,0 4.773,2.137 4.773,4.77 z"
           style="fill:#008000;fill-opacity:1;fill-rule:nonzero;stroke:#008000;stroke-width:0.858675;stroke-linecap:butt;stroke-linejoin:miter;stroke-miterlimit:4;stroke-dasharray:none;stroke-opacity:1"
           id="path190"
           inkscape:connector-curvature="0" /></g><text
         transform="scale(1.0345437,-0.96660971)"
         style="font-variant:normal;font-weight:normal;font-size:19.57349968px;font-family:Verdana;-inkscape-font-specification:Verdana;writing-mode:lr-tb;fill:#000000;fill-opacity:1;fill-rule:nonzero;stroke:none"
         id="text192"
         x="281.81592"
         y="-129.23494"><tspan
           x="281.81592"
           y="-129.23494"
           id="tspan194">F</tspan></text>
<text
         transform="scale(1.0345437,-0.96660971)"
         style="font-variant:normal;font-weight:normal;font-size:12.72277546px;font-family:Verdana;-inkscape-font-specification:Verdana;writing-mode:lr-tb;fill:#000000;fill-opacity:1;fill-rule:nonzero;stroke:none"
         id="text196"
         x="293.05539"
         y="-125.32022"><tspan
           x="293.05539 301.13434"
           y="-125.32022"
           sodipodi:role="line"
           id="tspan198">22</tspan></text>
<text
         transform="scale(1.0545328,-0.94828725)"
         style="font-variant:normal;font-weight:normal;font-size:19.95169258px;font-family:Verdana;-inkscape-font-specification:Verdana;writing-mode:lr-tb;fill:#000000;fill-opacity:1;fill-rule:nonzero;stroke:none"
         id="text200"
         x="252.15219"
         y="-105.99953"><tspan
           x="252.15219"
           y="-105.99953"
           id="tspan202">F</tspan></text>
<text
         transform="scale(1.0545328,-0.94828725)"
         style="font-variant:normal;font-weight:normal;font-size:12.96859932px;font-family:Verdana;-inkscape-font-specification:Verdana;writing-mode:lr-tb;fill:#000000;fill-opacity:1;fill-rule:nonzero;stroke:none"
         id="text204"
         x="263.60883"
         y="-102.00922"><tspan
           x="263.60883 271.84387"
           y="-102.00922"
           sodipodi:role="line"
           id="tspan206">23</tspan></text>
<text
         transform="scale(1.0545328,-0.94828725)"
         style="font-variant:normal;font-weight:normal;font-size:19.95169258px;font-family:Verdana;-inkscape-font-specification:Verdana;writing-mode:lr-tb;fill:#000000;fill-opacity:1;fill-rule:nonzero;stroke:none"
         id="text208"
         x="370.06631"
         y="-100.41781"><tspan
           x="370.06631"
           y="-100.41781"
           id="tspan210">F</tspan></text>
<text
         transform="scale(1.0545328,-0.94828725)"
         style="font-variant:normal;font-weight:normal;font-size:12.96859932px;font-family:Verdana;-inkscape-font-specification:Verdana;writing-mode:lr-tb;fill:#000000;fill-opacity:1;fill-rule:nonzero;stroke:none"
         id="text212"
         x="381.52292"
         y="-96.427513"><tspan
           x="381.52292 389.758"
           y="-96.427513"
           sodipodi:role="line"
           id="tspan214">33</tspan></text>
<text
         transform="scale(1.0545328,-0.94828725)"
         style="font-variant:normal;font-weight:normal;font-size:19.95169258px;font-family:Verdana;-inkscape-font-specification:Verdana;writing-mode:lr-tb;fill:#000000;fill-opacity:1;fill-rule:nonzero;stroke:none"
         id="text216"
         x="421.51682"
         y="-116.21818"><tspan
           x="421.51682"
           y="-116.21818"
           id="tspan218">F</tspan></text>
<text
         transform="scale(1.0545328,-0.94828725)"
         style="font-variant:normal;font-weight:normal;font-size:12.96859932px;font-family:Verdana;-inkscape-font-specification:Verdana;writing-mode:lr-tb;fill:#000000;fill-opacity:1;fill-rule:nonzero;stroke:none"
         id="text220"
         x="432.97348"
         y="-112.22787"><tspan
           x="432.97348 441.20853"
           y="-112.22787"
           sodipodi:role="line"
           id="tspan222">43</tspan></text>
<text
         transform="scale(1.0545328,-0.94828725)"
         style="font-variant:normal;font-weight:normal;font-size:19.95169258px;font-family:Verdana;-inkscape-font-specification:Verdana;writing-mode:lr-tb;fill:#000000;fill-opacity:1;fill-rule:nonzero;stroke:none"
         id="text224"
         x="421.28116"
         y="-180.19408"
         inkscape:transform-center-x="-7.6157511"
         inkscape:transform-center-y="-2.3649919"><tspan
           x="421.28116"
           y="-180.19408"
           id="tspan226">F</tspan></text>
<text
         transform="scale(1.0545328,-0.94828725)"
         style="font-variant:normal;font-weight:normal;font-size:12.96859932px;font-family:Verdana;-inkscape-font-specification:Verdana;writing-mode:lr-tb;fill:#000000;fill-opacity:1;fill-rule:nonzero;stroke:none"
         id="text228"
         x="432.73776"
         y="-176.20374"
         inkscape:transform-center-x="-24.670733"
         inkscape:transform-center-y="5.2577198"><tspan
           x="432.73776 440.97281"
           y="-176.20374"
           sodipodi:role="line"
           id="tspan230">42</tspan></text>
<text
         transform="scale(1.0545328,-0.94828725)"
         style="font-variant:normal;font-weight:normal;font-size:19.95169258px;font-family:Verdana;-inkscape-font-specification:Verdana;writing-mode:lr-tb;fill:#000000;fill-opacity:1;fill-rule:nonzero;stroke:none"
         id="text232"
         x="418.95032"
         y="-251.15964"><tspan
           x="418.95032"
           y="-251.15964"
           id="tspan234">F</tspan></text>
<text
         transform="scale(1.0545328,-0.94828725)"
         style="font-variant:normal;font-weight:normal;font-size:12.96859932px;font-family:Verdana;-inkscape-font-specification:Verdana;writing-mode:lr-tb;fill:#000000;fill-opacity:1;fill-rule:nonzero;stroke:none"
         id="text236"
         x="430.40698"
         y="-247.16928"><tspan
           x="430.40698 438.64203"
           y="-247.16928"
           sodipodi:role="line"
           id="tspan238">41</tspan></text>
<text
         transform="scale(1.0545328,-0.94828725)"
         style="font-variant:normal;font-weight:normal;font-size:18.16273117px;font-family:Verdana;-inkscape-font-specification:Verdana;writing-mode:lr-tb;fill:#000000;fill-opacity:1;fill-rule:nonzero;stroke:none"
         id="text240"
         x="324.81241"
         y="-202.59116"><tspan
           x="324.81241"
           y="-202.59116"
           id="tspan242">F</tspan></text>
<text
         transform="scale(1.0545328,-0.94828725)"
         style="font-variant:normal;font-weight:normal;font-size:11.80577374px;font-family:Verdana;-inkscape-font-specification:Verdana;writing-mode:lr-tb;fill:#000000;fill-opacity:1;fill-rule:nonzero;stroke:none"
         id="text244"
         x="335.24179"
         y="-198.95859"><tspan
           x="335.24179 342.7384"
           y="-198.95859"
           sodipodi:role="line"
           id="tspan246">31</tspan></text>
<text
         transform="scale(1.0545328,-0.94828725)"
         style="font-variant:normal;font-weight:normal;font-size:19.95169258px;font-family:Verdana;-inkscape-font-specification:Verdana;writing-mode:lr-tb;fill:#000000;fill-opacity:1;fill-rule:nonzero;stroke:none"
         id="text248"
         x="357.86224"
         y="-171.68546"><tspan
           x="357.86224"
           y="-171.68546"
           id="tspan250">F</tspan></text>
<text
         transform="scale(1.0545328,-0.94828725)"
         style="font-variant:normal;font-weight:normal;font-size:12.96859932px;font-family:Verdana;-inkscape-font-specification:Verdana;writing-mode:lr-tb;fill:#000000;fill-opacity:1;fill-rule:nonzero;stroke:none"
         id="text252"
         x="369.31888"
         y="-167.69511"><tspan
           x="369.31888 377.55396"
           y="-167.69511"
           sodipodi:role="line"
           id="tspan254">32</tspan></text>
<text
         transform="scale(1.0545328,-0.94828725)"
         style="font-variant:normal;font-weight:normal;font-size:19.95169258px;font-family:Verdana;-inkscape-font-specification:Verdana;writing-mode:lr-tb;fill:#000000;fill-opacity:1;fill-rule:nonzero;stroke:none"
         id="text256"
         x="186.52921"
         y="-189.24854"><tspan
           x="186.52921"
           y="-189.24854"
           id="tspan258">F</tspan></text>
<text
         transform="scale(1.0545328,-0.94828725)"
         style="font-variant:normal;font-weight:normal;font-size:12.96859932px;font-family:Verdana;-inkscape-font-specification:Verdana;writing-mode:lr-tb;fill:#000000;fill-opacity:1;fill-rule:nonzero;stroke:none"
         id="text260"
         x="197.98582"
         y="-185.25818"><tspan
           x="197.98582 206.2209"
           y="-185.25818"
           sodipodi:role="line"
           id="tspan262">12</tspan></text>
<text
         transform="scale(1.0545328,-0.94828725)"
         style="font-variant:normal;font-weight:normal;font-size:19.95169258px;font-family:Verdana;-inkscape-font-specification:Verdana;writing-mode:lr-tb;fill:#000000;fill-opacity:1;fill-rule:nonzero;stroke:none"
         id="text264"
         x="191.1732"
         y="-126.16652"><tspan
           x="191.1732"
           y="-126.16652"
           id="tspan266">F</tspan></text>
<text
         transform="scale(1.0545328,-0.94828725)"
         style="font-variant:normal;font-weight:normal;font-size:12.96859932px;font-family:Verdana;-inkscape-font-specification:Verdana;writing-mode:lr-tb;fill:#000000;fill-opacity:1;fill-rule:nonzero;stroke:none"
         id="text268"
         x="202.62982"
         y="-122.17616"><tspan
           x="202.62982 210.8649"
           y="-122.17616"
           sodipodi:role="line"
           id="tspan270">13</tspan></text>
<text
         transform="scale(1.0345437,-0.96660971)"
         style="font-variant:normal;font-weight:normal;font-size:19.57349968px;font-family:Verdana;-inkscape-font-specification:Verdana;writing-mode:lr-tb;fill:#000000;fill-opacity:1;fill-rule:nonzero;stroke:none"
         id="text272"
         x="281.06366"
         y="-200.89299"><tspan
           x="281.06366"
           y="-200.89299"
           id="tspan274">F</tspan></text>
<text
         transform="scale(1.0345437,-0.96660971)"
         style="font-variant:normal;font-weight:normal;font-size:12.72277546px;font-family:Verdana;-inkscape-font-specification:Verdana;writing-mode:lr-tb;fill:#000000;fill-opacity:1;fill-rule:nonzero;stroke:none"
         id="text276"
         x="292.30319"
         y="-196.9783"><tspan
           x="292.30319 300.38211"
           y="-196.9783"
           sodipodi:role="line"
           id="tspan278">21</tspan></text>
<text
         transform="scale(0.99238908,-1.0076693)"
         style="font-variant:normal;font-weight:normal;font-size:25.62321472px;font-family:Verdana;-inkscape-font-specification:Verdana;writing-mode:lr-tb;fill:#000000;fill-opacity:1;fill-rule:nonzero;stroke:none"
         id="text118-3"
         x="655.3468"
         y="-167.32654">B</text>
</g></g></svg>