<?xml version="1.0" encoding="UTF-8" standalone="no"?>
<!-- Created with Inkscape (http://www.inkscape.org/) -->

<svg
   xmlns:dc="http://purl.org/dc/elements/1.1/"
   xmlns:cc="http://creativecommons.org/ns#"
   xmlns:rdf="http://www.w3.org/1999/02/22-rdf-syntax-ns#"
   xmlns:svg="http://www.w3.org/2000/svg"
   xmlns="http://www.w3.org/2000/svg"
   xmlns:sodipodi="http://sodipodi.sourceforge.net/DTD/sodipodi-0.dtd"
   xmlns:inkscape="http://www.inkscape.org/namespaces/inkscape"
   id="svg2"
   version="1.1"
   inkscape:version="0.91 r13725"
   xml:space="preserve"
   width="577.45227"
   height="322.78375"
   viewBox="0 0 577.45227 322.78375"
   sodipodi:docname="optimization.svg"><metadata
     id="metadata8"><rdf:RDF><cc:Work
         rdf:about=""><dc:format>image/svg+xml</dc:format><dc:type
           rdf:resource="http://purl.org/dc/dcmitype/StillImage" /><dc:title></dc:title></cc:Work></rdf:RDF></metadata><defs
     id="defs6"><clipPath
       clipPathUnits="userSpaceOnUse"
       id="clipPath32"><path
         d="m 0.375,258.227 432,0 0,-257.82 -432,0 0,257.82 z"
         id="path34"
         inkscape:connector-curvature="0" /></clipPath><clipPath
       clipPathUnits="userSpaceOnUse"
       id="clipPath42"><path
         d="M 15,9 364,9 364,248 15,248 15,9 Z"
         id="path44"
         inkscape:connector-curvature="0" /></clipPath><clipPath
       clipPathUnits="userSpaceOnUse"
       id="clipPath52"><path
         d="m 42,28 5,0 0,-7 -5,0 0,7 z"
         id="path54"
         inkscape:connector-curvature="0" /></clipPath><clipPath
       clipPathUnits="userSpaceOnUse"
       id="clipPath62"><path
         d="m 42,21 5,0 0,7 -5,0 0,-7 z"
         id="path64"
         inkscape:connector-curvature="0" /></clipPath><clipPath
       clipPathUnits="userSpaceOnUse"
       id="clipPath76"><path
         d="m 33,64 14,0 0,-7 -14,0 0,7 z"
         id="path78"
         inkscape:connector-curvature="0" /></clipPath><clipPath
       clipPathUnits="userSpaceOnUse"
       id="clipPath86"><path
         d="m 33,57 14,0 0,7 -14,0 0,-7 z"
         id="path88"
         inkscape:connector-curvature="0" /></clipPath><clipPath
       clipPathUnits="userSpaceOnUse"
       id="clipPath100"><path
         d="m 28,100 19,0 0,-7 -19,0 0,7 z"
         id="path102"
         inkscape:connector-curvature="0" /></clipPath><clipPath
       clipPathUnits="userSpaceOnUse"
       id="clipPath110"><path
         d="m 28,93 19,0 0,7 -19,0 0,-7 z"
         id="path112"
         inkscape:connector-curvature="0" /></clipPath><clipPath
       clipPathUnits="userSpaceOnUse"
       id="clipPath124"><path
         d="m 28,136 19,0 0,-7 -19,0 0,7 z"
         id="path126"
         inkscape:connector-curvature="0" /></clipPath><clipPath
       clipPathUnits="userSpaceOnUse"
       id="clipPath134"><path
         d="m 28,129 19,0 0,7 -19,0 0,-7 z"
         id="path136"
         inkscape:connector-curvature="0" /></clipPath><clipPath
       clipPathUnits="userSpaceOnUse"
       id="clipPath148"><path
         d="m 28,172 19,0 0,-6 -19,0 0,6 z"
         id="path150"
         inkscape:connector-curvature="0" /></clipPath><clipPath
       clipPathUnits="userSpaceOnUse"
       id="clipPath158"><path
         d="m 28,166 19,0 0,6 -19,0 0,-6 z"
         id="path160"
         inkscape:connector-curvature="0" /></clipPath><clipPath
       clipPathUnits="userSpaceOnUse"
       id="clipPath172"><path
         d="m 28,208 19,0 0,-6 -19,0 0,6 z"
         id="path174"
         inkscape:connector-curvature="0" /></clipPath><clipPath
       clipPathUnits="userSpaceOnUse"
       id="clipPath182"><path
         d="m 28,202 19,0 0,6 -19,0 0,-6 z"
         id="path184"
         inkscape:connector-curvature="0" /></clipPath><clipPath
       clipPathUnits="userSpaceOnUse"
       id="clipPath196"><path
         d="m 68,16 10,0 0,-6 -10,0 0,6 z"
         id="path198"
         inkscape:connector-curvature="0" /></clipPath><clipPath
       clipPathUnits="userSpaceOnUse"
       id="clipPath206"><path
         d="m 68,10 10,0 0,6 -10,0 0,-6 z"
         id="path208"
         inkscape:connector-curvature="0" /></clipPath><clipPath
       clipPathUnits="userSpaceOnUse"
       id="clipPath220"><path
         d="m 105,16 9,0 0,-6 -9,0 0,6 z"
         id="path222"
         inkscape:connector-curvature="0" /></clipPath><clipPath
       clipPathUnits="userSpaceOnUse"
       id="clipPath230"><path
         d="m 105,10 9,0 0,6 -9,0 0,-6 z"
         id="path232"
         inkscape:connector-curvature="0" /></clipPath><clipPath
       clipPathUnits="userSpaceOnUse"
       id="clipPath244"><path
         d="m 142,16 9,0 0,-7 -9,0 0,7 z"
         id="path246"
         inkscape:connector-curvature="0" /></clipPath><clipPath
       clipPathUnits="userSpaceOnUse"
       id="clipPath254"><path
         d="m 142,9 9,0 0,7 -9,0 0,-7 z"
         id="path256"
         inkscape:connector-curvature="0" /></clipPath><clipPath
       clipPathUnits="userSpaceOnUse"
       id="clipPath268"><path
         d="m 178,16 9,0 0,-6 -9,0 0,6 z"
         id="path270"
         inkscape:connector-curvature="0" /></clipPath><clipPath
       clipPathUnits="userSpaceOnUse"
       id="clipPath278"><path
         d="m 178,10 9,0 0,6 -9,0 0,-6 z"
         id="path280"
         inkscape:connector-curvature="0" /></clipPath><clipPath
       clipPathUnits="userSpaceOnUse"
       id="clipPath292"><path
         d="m 215,16 9,0 0,-7 -9,0 0,7 z"
         id="path294"
         inkscape:connector-curvature="0" /></clipPath><clipPath
       clipPathUnits="userSpaceOnUse"
       id="clipPath302"><path
         d="m 215,9 9,0 0,7 -9,0 0,-7 z"
         id="path304"
         inkscape:connector-curvature="0" /></clipPath><clipPath
       clipPathUnits="userSpaceOnUse"
       id="clipPath316"><path
         d="m 251,16 9,0 0,-7 -9,0 0,7 z"
         id="path318"
         inkscape:connector-curvature="0" /></clipPath><clipPath
       clipPathUnits="userSpaceOnUse"
       id="clipPath326"><path
         d="m 251,9 9,0 0,7 -9,0 0,-7 z"
         id="path328"
         inkscape:connector-curvature="0" /></clipPath><clipPath
       clipPathUnits="userSpaceOnUse"
       id="clipPath340"><path
         d="m 15,127 10,0 0,-46 -10,0 0,46 z"
         id="path342"
         inkscape:connector-curvature="0" /></clipPath><clipPath
       clipPathUnits="userSpaceOnUse"
       id="clipPath350"><path
         d="m 15,81 10,0 0,46 -10,0 0,-46 z"
         id="path352"
         inkscape:connector-curvature="0" /></clipPath><clipPath
       clipPathUnits="userSpaceOnUse"
       id="clipPath364"><path
         d="m 15,133 9,0 0,-5 -9,0 0,5 z"
         id="path366"
         inkscape:connector-curvature="0" /></clipPath><clipPath
       clipPathUnits="userSpaceOnUse"
       id="clipPath374"><path
         d="m 15,128 9,0 0,5 -9,0 0,-5 z"
         id="path376"
         inkscape:connector-curvature="0" /></clipPath><clipPath
       clipPathUnits="userSpaceOnUse"
       id="clipPath388"><path
         d="m 17,141 8,0 0,-6 -8,0 0,6 z"
         id="path390"
         inkscape:connector-curvature="0" /></clipPath><clipPath
       clipPathUnits="userSpaceOnUse"
       id="clipPath398"><path
         d="m 17,135 8,0 0,6 -8,0 0,-6 z"
         id="path400"
         inkscape:connector-curvature="0" /></clipPath><clipPath
       clipPathUnits="userSpaceOnUse"
       id="clipPath412"><path
         d="m 17,148 6,0 0,-7 -6,0 0,7 z"
         id="path414"
         inkscape:connector-curvature="0" /></clipPath><clipPath
       clipPathUnits="userSpaceOnUse"
       id="clipPath422"><path
         d="m 17,141 6,0 0,7 -6,0 0,-7 z"
         id="path424"
         inkscape:connector-curvature="0" /></clipPath><clipPath
       clipPathUnits="userSpaceOnUse"
       id="clipPath436"><path
         d="m 68,248 296,0 0,-13 -296,0 0,13 z"
         id="path438"
         inkscape:connector-curvature="0" /></clipPath><clipPath
       clipPathUnits="userSpaceOnUse"
       id="clipPath446"><path
         d="m 68,235 296,0 0,13 -296,0 0,-13 z"
         id="path448"
         inkscape:connector-curvature="0" /></clipPath><clipPath
       clipPathUnits="userSpaceOnUse"
       id="clipPath460"><path
         d="m 77,231 278,0 0,-13 -278,0 0,13 z"
         id="path462"
         inkscape:connector-curvature="0" /></clipPath><clipPath
       clipPathUnits="userSpaceOnUse"
       id="clipPath470"><path
         d="m 77,218 278,0 0,13 -278,0 0,-13 z"
         id="path472"
         inkscape:connector-curvature="0" /></clipPath><clipPath
       clipPathUnits="userSpaceOnUse"
       id="clipPath494"><path
         d="m 0,258.227 433,0 0,-259 -433,0 0,259 z"
         id="path496"
         inkscape:connector-curvature="0" /></clipPath><clipPath
       clipPathUnits="userSpaceOnUse"
       id="clipPath504"><path
         d="M 0,0 433,0 433,259 0,259 0,0 Z"
         id="path506"
         inkscape:connector-curvature="0" /></clipPath></defs><sodipodi:namedview
     pagecolor="#ffffff"
     bordercolor="#666666"
     borderopacity="1"
     objecttolerance="10"
     gridtolerance="10"
     guidetolerance="10"
     inkscape:pageopacity="0"
     inkscape:pageshadow="2"
     inkscape:window-width="1920"
     inkscape:window-height="1005"
     id="namedview4"
     showgrid="false"
     inkscape:zoom="1.0339876"
     inkscape:cx="305.47326"
     inkscape:cy="172.83456"
     inkscape:window-x="-9"
     inkscape:window-y="-9"
     inkscape:window-maximized="1"
     inkscape:current-layer="g10" /><g
     id="g10"
     inkscape:groupmode="layer"
     inkscape:label="optimization"
     transform="matrix(1.25,0,0,-1.25,0,322.78374)"><g
       id="g12"><path
         d="m 0.375,258.227 432,0 0,-257.852 -432,0 0,257.852 z"
         style="fill:#ffffff;fill-opacity:1;fill-rule:evenodd;stroke:none"
         id="path14"
         inkscape:connector-curvature="0" /><path
         d="m 54.664,59.688 219.102,0 m -219.102,36.059 219.102,0 m -219.102,36.121 219.102,0 m -219.102,36.058 219.102,0 m -219.102,36.121 219.102,0"
         style="fill:none;stroke:#d9d9d9;stroke-width:0.75;stroke-linecap:butt;stroke-linejoin:round;stroke-miterlimit:10;stroke-dasharray:none;stroke-opacity:1"
         id="path16"
         inkscape:connector-curvature="0" /><path
         d="m 61.156,44.086 5.879,0 0,-20.507 -5.879,0 0,20.507 z m 36.481,-0.3 5.879,0 0,-20.207 -5.879,0 0,20.207 z m 36.539,20.339 5.879,0 0,-40.546 -5.879,0 0,40.546 z m 36.48,31.5 5.938,0 0,-72.046 -5.938,0 0,72.046 z m 36.539,30.481 5.879,0 0,-102.527 -5.879,0 0,102.527 z m 36.539,6.242 5.879,0 0,-108.769 -5.879,0 0,108.769 z"
         style="fill:#ffeeaa;fill-opacity:1;fill-rule:nonzero;stroke:none"
         id="path18"
         inkscape:connector-curvature="0" /><path
         d="m 67.035,43.965 5.879,0 0,-20.386 -5.879,0 0,20.386 z m 36.481,0.242 5.937,0 0,-20.628 -5.937,0 0,20.628 z m 36.539,19.622 5.879,0 0,-40.25 -5.879,0 0,40.25 z m 36.539,30.476 5.883,0 0,-70.726 -5.883,0 0,70.726 z m 36.48,29.883 5.942,0 0,-100.609 -5.942,0 0,100.609 z m 36.539,8.16 5.883,0 0,-108.769 -5.883,0 0,108.769 z"
         style="fill:#5599ff;fill-opacity:1;fill-rule:nonzero;stroke:none"
         id="path20"
         inkscape:connector-curvature="0" /><path
         d="m 72.914,49.606 5.941,0 0,-26.027 -5.941,0 0,26.027 z m 36.539,-1.801 5.883,0 0,-24.226 -5.883,0 0,24.226 z m 36.481,27.363 5.941,0 0,-51.589 -5.941,0 0,51.589 z m 36.543,38.938 5.878,0 0,-90.527 -5.878,0 0,90.527 z m 36.539,41.883 5.879,0 0,-132.41 -5.879,0 0,132.41 z m 36.48,-0.184 5.879,0 0,-132.226 -5.879,0 0,132.226 z"
         style="fill:#a05a2c;fill-opacity:1;fill-rule:nonzero;stroke:none"
         id="path22"
         inkscape:connector-curvature="0" /><path
         d="m 78.855,50.508 5.879,0 0,-26.929 -5.879,0 0,26.929 z m 36.481,-0.179 5.879,0 0,-26.75 -5.879,0 0,26.75 z m 36.539,28.796 5.879,0 0,-55.546 -5.879,0 0,55.546 z m 36.48,42.84 5.942,0 0,-98.386 -5.942,0 0,98.386 z m 36.54,49.383 5.878,0 0,-147.769 -5.878,0 0,147.769 z m 36.48,-3.543 5.941,0 0,-144.226 -5.941,0 0,144.226 z"
         style="fill:#800080;fill-opacity:1;fill-rule:nonzero;stroke:none"
         id="path24"
         inkscape:connector-curvature="0" /><path
         d="m 54.664,23.579 219.102,0"
         style="fill:none;stroke:#d9d9d9;stroke-width:0.75;stroke-linecap:butt;stroke-linejoin:round;stroke-miterlimit:10;stroke-dasharray:none;stroke-opacity:1"
         id="path26"
         inkscape:connector-curvature="0" /></g><g
       id="g28"><g
         id="g30"
         clip-path="url(#clipPath32)"><g
           id="g36"
           transform="translate(0,-0.77301)"><g
             id="g38"><g
               id="g40"
               clip-path="url(#clipPath42)"><g
                 id="g46" /><g
                 id="g48"><g
                   id="g50"
                   clip-path="url(#clipPath52)"><g
                     id="g56"><g
                       id="g58"><g
                         id="g60"
                         clip-path="url(#clipPath62)"><g
                           id="g66"><text
                             transform="matrix(1,0,0,-1,41.775,21.74)"
                             style="font-variant:normal;font-weight:normal;font-size:9px;font-family:Calibri;-inkscape-font-specification:Calibri;writing-mode:lr-tb;fill:#595959;fill-opacity:1;fill-rule:nonzero;stroke:none"
                             id="text68"><tspan
                               x="0"
                               y="0"
                               id="tspan70">0</tspan></text>
</g></g></g></g></g></g><g
                 id="g72"><g
                   id="g74"
                   clip-path="url(#clipPath76)"><g
                     id="g80"><g
                       id="g82"><g
                         id="g84"
                         clip-path="url(#clipPath86)"><g
                           id="g90"><text
                             transform="matrix(1,0,0,-1,32.655,57.84)"
                             style="font-variant:normal;font-weight:normal;font-size:9.02000046px;font-family:Calibri;-inkscape-font-specification:Calibri;writing-mode:lr-tb;fill:#595959;fill-opacity:1;fill-rule:nonzero;stroke:none"
                             id="text92"><tspan
                               x="0 4.5641198 9.0831404"
                               y="0"
                               sodipodi:role="line"
                               id="tspan94">500</tspan></text>
</g></g></g></g></g></g><g
                 id="g96"><g
                   id="g98"
                   clip-path="url(#clipPath100)"><g
                     id="g104"><g
                       id="g106"><g
                         id="g108"
                         clip-path="url(#clipPath110)"><g
                           id="g114"><text
                             transform="matrix(1,0,0,-1,28.095,93.92)"
                             style="font-variant:normal;font-weight:normal;font-size:9px;font-family:Calibri;-inkscape-font-specification:Calibri;writing-mode:lr-tb;fill:#595959;fill-opacity:1;fill-rule:nonzero;stroke:none"
                             id="text116"><tspan
                               x="0 4.5539999 9.1079998 13.635"
                               y="0"
                               sodipodi:role="line"
                               id="tspan118">1000</tspan></text>
</g></g></g></g></g></g><g
                 id="g120"><g
                   id="g122"
                   clip-path="url(#clipPath124)"><g
                     id="g128"><g
                       id="g130"><g
                         id="g132"
                         clip-path="url(#clipPath134)"><g
                           id="g138"><text
                             transform="matrix(1,0,0,-1,28.095,130.02)"
                             style="font-variant:normal;font-weight:normal;font-size:9px;font-family:Calibri;-inkscape-font-specification:Calibri;writing-mode:lr-tb;fill:#595959;fill-opacity:1;fill-rule:nonzero;stroke:none"
                             id="text140"><tspan
                               x="0 4.5539999 9.1079998 13.635"
                               y="0"
                               sodipodi:role="line"
                               id="tspan142">1500</tspan></text>
</g></g></g></g></g></g><g
                 id="g144"><g
                   id="g146"
                   clip-path="url(#clipPath148)"><g
                     id="g152"><g
                       id="g154"><g
                         id="g156"
                         clip-path="url(#clipPath158)"><g
                           id="g162"><text
                             transform="matrix(1,0,0,-1,28.095,166.12)"
                             style="font-variant:normal;font-weight:normal;font-size:9px;font-family:Calibri;-inkscape-font-specification:Calibri;writing-mode:lr-tb;fill:#595959;fill-opacity:1;fill-rule:nonzero;stroke:none"
                             id="text164"><tspan
                               x="0 4.5539999 9.1079998 13.635"
                               y="0"
                               sodipodi:role="line"
                               id="tspan166">2000</tspan></text>
</g></g></g></g></g></g><g
                 id="g168"><g
                   id="g170"
                   clip-path="url(#clipPath172)"><g
                     id="g176"><g
                       id="g178"><g
                         id="g180"
                         clip-path="url(#clipPath182)"><g
                           id="g186"><text
                             transform="matrix(1,0,0,-1,28.095,202.22)"
                             style="font-variant:normal;font-weight:normal;font-size:9px;font-family:Calibri;-inkscape-font-specification:Calibri;writing-mode:lr-tb;fill:#595959;fill-opacity:1;fill-rule:nonzero;stroke:none"
                             id="text188"><tspan
                               x="0 4.5539999 9.1079998 13.635"
                               y="0"
                               sodipodi:role="line"
                               id="tspan190">2500</tspan></text>
</g></g></g></g></g></g><g
                 id="g192"><g
                   id="g194"
                   clip-path="url(#clipPath196)"><g
                     id="g200"><g
                       id="g202"><g
                         id="g204"
                         clip-path="url(#clipPath206)"><g
                           id="g210"><text
                             transform="matrix(1,0,0,-1,68.215,10.04)"
                             style="font-variant:normal;font-weight:normal;font-size:9px;font-family:Calibri;-inkscape-font-specification:Calibri;writing-mode:lr-tb;fill:#595959;fill-opacity:1;fill-rule:nonzero;stroke:none"
                             id="text212"><tspan
                               x="0 4.8870001"
                               y="0"
                               sodipodi:role="line"
                               id="tspan214">B1</tspan></text>
</g></g></g></g></g></g><g
                 id="g216"><g
                   id="g218"
                   clip-path="url(#clipPath220)"><g
                     id="g224"><g
                       id="g226"><g
                         id="g228"
                         clip-path="url(#clipPath230)"><g
                           id="g234"><text
                             transform="matrix(1,0,0,-1,104.735,10.04)"
                             style="font-variant:normal;font-weight:normal;font-size:9px;font-family:Calibri;-inkscape-font-specification:Calibri;writing-mode:lr-tb;fill:#595959;fill-opacity:1;fill-rule:nonzero;stroke:none"
                             id="text236"><tspan
                               x="0 4.8870001"
                               y="0"
                               sodipodi:role="line"
                               id="tspan238">B2</tspan></text>
</g></g></g></g></g></g><g
                 id="g240"><g
                   id="g242"
                   clip-path="url(#clipPath244)"><g
                     id="g248"><g
                       id="g250"><g
                         id="g252"
                         clip-path="url(#clipPath254)"><g
                           id="g258"><text
                             transform="matrix(1,0,0,-1,141.255,10.04)"
                             style="font-variant:normal;font-weight:normal;font-size:9px;font-family:Calibri;-inkscape-font-specification:Calibri;writing-mode:lr-tb;fill:#595959;fill-opacity:1;fill-rule:nonzero;stroke:none"
                             id="text260"><tspan
                               x="0 4.8870001"
                               y="0"
                               sodipodi:role="line"
                               id="tspan262">B3</tspan></text>
</g></g></g></g></g></g><g
                 id="g264"><g
                   id="g266"
                   clip-path="url(#clipPath268)"><g
                     id="g272"><g
                       id="g274"><g
                         id="g276"
                         clip-path="url(#clipPath278)"><g
                           id="g282"><text
                             transform="matrix(1,0,0,-1,177.775,10.04)"
                             style="font-variant:normal;font-weight:normal;font-size:9px;font-family:Calibri;-inkscape-font-specification:Calibri;writing-mode:lr-tb;fill:#595959;fill-opacity:1;fill-rule:nonzero;stroke:none"
                             id="text284"><tspan
                               x="0 4.8870001"
                               y="0"
                               sodipodi:role="line"
                               id="tspan286">B4</tspan></text>
</g></g></g></g></g></g><g
                 id="g288"><g
                   id="g290"
                   clip-path="url(#clipPath292)"><g
                     id="g296"><g
                       id="g298"><g
                         id="g300"
                         clip-path="url(#clipPath302)"><g
                           id="g306"><text
                             transform="matrix(1,0,0,-1,214.295,10.04)"
                             style="font-variant:normal;font-weight:normal;font-size:9px;font-family:Calibri;-inkscape-font-specification:Calibri;writing-mode:lr-tb;fill:#595959;fill-opacity:1;fill-rule:nonzero;stroke:none"
                             id="text308"><tspan
                               x="0 4.8870001"
                               y="0"
                               sodipodi:role="line"
                               id="tspan310">B5</tspan></text>
</g></g></g></g></g></g><g
                 id="g312"><g
                   id="g314"
                   clip-path="url(#clipPath316)"><g
                     id="g320"><g
                       id="g322"><g
                         id="g324"
                         clip-path="url(#clipPath326)"><g
                           id="g330"><text
                             transform="matrix(1,0,0,-1,250.815,10.04)"
                             style="font-variant:normal;font-weight:normal;font-size:9px;font-family:Calibri;-inkscape-font-specification:Calibri;writing-mode:lr-tb;fill:#595959;fill-opacity:1;fill-rule:nonzero;stroke:none"
                             id="text332"><tspan
                               x="0 4.8870001"
                               y="0"
                               sodipodi:role="line"
                               id="tspan334">B6</tspan></text>
</g></g></g></g></g></g><g
                 id="g336"><g
                   id="g338"
                   clip-path="url(#clipPath340)"><g
                     id="g344"><g
                       id="g346"><g
                         id="g348"
                         clip-path="url(#clipPath350)"><g
                           id="g354"><text
                             transform="matrix(-4.4e-8,1,1,4.4e-8,22.435,80.84)"
                             style="font-variant:normal;font-weight:normal;font-size:10.02000046px;font-family:Calibri;-inkscape-font-specification:Calibri;writing-mode:lr-tb;fill:#595959;fill-opacity:1;fill-rule:nonzero;stroke:none"
                             id="text356"><tspan
                               x="0 8.9077797 11.20236 14.68932 19.66926 21.903721 26.883659 32.144161 36.853561 40.200241 45.460739"
                               y="0"
                               sodipodi:role="line"
                               id="tspan358">Wirelength </tspan></text>
</g></g></g></g></g></g><g
                 id="g360"><g
                   id="g362"
                   clip-path="url(#clipPath364)"><g
                     id="g368"><g
                       id="g370"><g
                         id="g372"
                         clip-path="url(#clipPath374)"><g
                           id="g378"><text
                             transform="matrix(-4.4e-8,1,1,4.4e-8,22.435,128.62)"
                             style="font-variant:normal;font-weight:normal;font-size:10.02000046px;font-family:Calibri;-inkscape-font-specification:Calibri;writing-mode:lr-tb;fill:#595959;fill-opacity:1;fill-rule:nonzero;stroke:none"
                             id="text380"><tspan
                               x="0 3.8977799"
                               y="0"
                               sodipodi:role="line"
                               id="tspan382">/ </tspan></text>
</g></g></g></g></g></g><g
                 id="g384"><g
                   id="g386"
                   clip-path="url(#clipPath388)"><g
                     id="g392"><g
                       id="g394"><g
                         id="g396"
                         clip-path="url(#clipPath398)"><g
                           id="g402"><text
                             transform="matrix(-4.4e-8,1,1,4.4e-8,22.435,134.74)"
                             style="font-variant:normal;font-weight:normal;font-size:10.02000046px;font-family:Calibri;-inkscape-font-specification:Calibri;writing-mode:lr-tb;fill:#595959;fill-opacity:1;fill-rule:nonzero;stroke:none"
                             id="text404"><tspan
                               x="0"
                               y="0"
                               id="tspan406">μ</tspan></text>
</g></g></g></g></g></g><g
                 id="g408"><g
                   id="g410"
                   clip-path="url(#clipPath412)"><g
                     id="g416"><g
                       id="g418"><g
                         id="g420"
                         clip-path="url(#clipPath422)"><g
                           id="g426"><text
                             transform="matrix(-4.4e-8,1,1,4.4e-8,22.435,140.26)"
                             style="font-variant:normal;font-weight:normal;font-size:10.02000046px;font-family:Calibri;-inkscape-font-specification:Calibri;writing-mode:lr-tb;fill:#595959;fill-opacity:1;fill-rule:nonzero;stroke:none"
                             id="text428"><tspan
                               x="0"
                               y="0"
                               id="tspan430">m</tspan></text>
</g></g></g></g></g></g><g
                 id="g432"><g
                   id="g434"
                   clip-path="url(#clipPath436)"><g
                     id="g440"><g
                       id="g442"><g
                         id="g444"
                         clip-path="url(#clipPath446)"><g
                           id="g450"><text
                             transform="matrix(1,0,0,-1,67.895,238.18)"
                             style="font-variant:normal;font-weight:normal;font-size:13.97999954px;font-family:Calibri;-inkscape-font-specification:Calibri;writing-mode:lr-tb;fill:#595959;fill-opacity:1;fill-rule:nonzero;stroke:none"
                             id="text452"><tspan
                               x="0 6.80826 14.14776 21.095819 24.255301 31.622761 38.864399 43.533718 46.735142 57.891178 61.050659 66.265198 72.863762 77.533081 80.734497 88.101959 95.371559 98.782677 105.59094 109.72902 113.62944 120.5775 126.47706 131.14638 134.30586 141.67332 145.93723 149.09669 156.54803 162.96486 171.56256 174.72205 180.53772 187.90518 199.06122 206.40073 213.74022 218.12994 224.7285 229.39783 232.59924 239.96671 247.2363 253.93272 257.13412 260.39148 271.54752 278.91498 286.25449 293.20255"
                               y="0"
                               sodipodi:role="line"
                               id="tspan454">The optimization effect of CFD computational model</tspan></text>
</g></g></g></g></g></g><g
                 id="g456"><g
                   id="g458"
                   clip-path="url(#clipPath460)"><g
                     id="g464"><g
                       id="g466"><g
                         id="g468"
                         clip-path="url(#clipPath470)"><g
                           id="g474"><text
                             transform="matrix(1,0,0,-1,77.255,221.08)"
                             style="font-variant:normal;font-weight:normal;font-size:13.97999954px;font-family:Calibri;-inkscape-font-specification:Calibri;writing-mode:lr-tb;fill:#595959;fill-opacity:1;fill-rule:nonzero;stroke:none"
                             id="text476"><tspan
                               x="0 7.3674598 14.70696 17.86644 22.381981 29.749439 34.237019 40.933441 44.134861 47.336281 57.318001 60.519421 65.160782 72.108841 75.310257 82.258324 89.527924 95.888817 100.55814 107.89764 111.18294 117.87936 125.21886 132.55836 135.71783 140.23338 147.60085 152.08842 158.78484 161.98627 165.21564 172.0239 176.16199 180.06239 187.01047 192.91002 197.5374 200.73882 206.89001 213.83807 217.05348 227.0352 230.23662 234.90594 241.854 245.05542 252.00348 259.27307 265.60602 270.27533"
                               y="0"
                               sodipodi:role="line"
                               id="tspan478">on total wirelength and total effective wirelength</tspan></text>
</g></g></g></g></g></g><g
                 id="g480"><path
                   d="m 289.484,179.773 4.945,0 0,-4.945 -4.945,0 0,4.945 z"
                   style="fill:#ffeeaa;fill-opacity:1;fill-rule:evenodd;stroke:none"
                   id="path482"
                   inkscape:connector-curvature="0" /><path
                   d="m 289.484,141.145 4.945,0 0,-4.945 -4.945,0 0,4.945 z"
                   style="fill:#5599ff;fill-opacity:1;fill-rule:evenodd;stroke:none"
                   id="path484"
                   inkscape:connector-curvature="0" /><path
                   d="m 289.484,102.523 4.945,0 0,-4.945 -4.945,0 0,4.945 z"
                   style="fill:#a05a2c;fill-opacity:1;fill-rule:evenodd;stroke:none"
                   id="path486"
                   inkscape:connector-curvature="0" /><path
                   d="m 289.484,63.895 4.945,0 0,-4.945 -4.945,0 0,4.945 z"
                   style="fill:#800080;fill-opacity:1;fill-rule:evenodd;stroke:none"
                   id="path488"
                   inkscape:connector-curvature="0" /></g></g></g></g></g></g><g
       id="g490"
       transform="matrix(1.0715595,0,0,0.99992771,-0.00961645,0.00933292)"><g
         id="g492"
         clip-path="url(#clipPath494)"><g
           id="g498"
           transform="translate(0,-0.77301)"><g
             id="g500"><g
               id="g502"
               clip-path="url(#clipPath504)"><g
                 id="g508"><path
                   d="m 0.375,259 432,0 0,-257.852 -432,0 0,257.852 z"
                   style="fill:none;stroke:#d9d9d9;stroke-width:0.75;stroke-linecap:butt;stroke-linejoin:round;stroke-miterlimit:10;stroke-dasharray:none;stroke-opacity:1"
                   id="path510"
                   inkscape:connector-curvature="0" /></g></g></g></g><text
           transform="matrix(1,0,0,-1,377.02628,159.19589)"
           style="font-variant:normal;font-weight:normal;font-size:12px;font-family:Calibri;-inkscape-font-specification:Calibri;writing-mode:lr-tb;fill:#595959;fill-opacity:1;fill-rule:nonzero;stroke:none"
           id="text518"><tspan
             x="0"
             y="0"
             id="tspan520" /></text>
</g></g><flowRoot
       xml:space="preserve"
       id="flowRoot4700"
       style="font-style:normal;font-weight:normal;font-size:12.5px;line-height:125%;font-family:sans-serif;letter-spacing:0px;word-spacing:0px;fill:#000000;fill-opacity:1;stroke:none;stroke-width:1px;stroke-linecap:butt;stroke-linejoin:miter;stroke-opacity:1;"
       transform="matrix(0.8,0,0,-0.8,0,258.22699)"><flowRegion
         id="flowRegion4702"><rect
           id="rect4704"
           width="173.59976"
           height="38.201618"
           x="622.83142"
           y="96.959"
           style="font-size:12.5px;" /></flowRegion><flowPara
         id="flowPara4706" /></flowRoot><text
       xml:space="preserve"
       style="font-style:normal;font-weight:normal;font-size:20px;line-height:125%;font-family:sans-serif;letter-spacing:0px;word-spacing:0px;fill:#595959;fill-opacity:1;stroke:none;stroke-width:1px;stroke-linecap:butt;stroke-linejoin:miter;stroke-opacity:1;"
       x="297.51212"
       y="-174.08331"
       id="text4708"
       sodipodi:linespacing="125%"
       transform="scale(1,-1)"><tspan
         sodipodi:role="line"
         id="tspan4710"
         x="297.51212"
         y="-174.08331"
         style="font-style:normal;font-variant:normal;font-weight:normal;font-stretch:normal;font-size:12px;font-family:Calibri;-inkscape-font-specification:Calibri;fill:#595959;fill-opacity:1;">Total wirelength (using CFD </tspan><tspan
         sodipodi:role="line"
         x="297.51212"
         y="-159.08331"
         id="tspan4712"
         style="font-style:normal;font-variant:normal;font-weight:normal;font-stretch:normal;font-size:12px;font-family:Calibri;-inkscape-font-specification:Calibri;fill:#595959;fill-opacity:1;">model while routing)</tspan></text>
<text
       xml:space="preserve"
       style="font-style:normal;font-weight:normal;font-size:20px;line-height:125%;font-family:sans-serif;letter-spacing:0px;word-spacing:0px;fill:#595959;fill-opacity:1;stroke:none;stroke-width:1px;stroke-linecap:butt;stroke-linejoin:miter;stroke-opacity:1;"
       x="295.91211"
       y="-135.56827"
       id="text4708-3"
       sodipodi:linespacing="125%"
       transform="scale(1,-1)"><tspan
         sodipodi:role="line"
         x="295.91211"
         y="-135.56827"
         id="tspan4712-3"
         style="font-style:normal;font-variant:normal;font-weight:normal;font-stretch:normal;font-size:12px;font-family:Calibri;-inkscape-font-specification:Calibri;fill:#595959;fill-opacity:1;">Total wirelength (only considering</tspan><tspan
         sodipodi:role="line"
         x="295.91211"
         y="-120.56826"
         style="font-style:normal;font-variant:normal;font-weight:normal;font-stretch:normal;font-size:12px;font-family:Calibri;-inkscape-font-specification:Calibri;fill:#595959;fill-opacity:1;"
         id="tspan4768">actual length while routing)</tspan></text>
<text
       xml:space="preserve"
       style="font-style:normal;font-weight:normal;font-size:20px;line-height:125%;font-family:sans-serif;letter-spacing:0px;word-spacing:0px;fill:#595959;fill-opacity:1;stroke:none;stroke-width:1px;stroke-linecap:butt;stroke-linejoin:miter;stroke-opacity:1;"
       x="295.91211"
       y="-96.94986"
       id="text4708-8"
       sodipodi:linespacing="125%"
       transform="scale(1,-1)"><tspan
         sodipodi:role="line"
         id="tspan4710-8"
         x="295.91211"
         y="-96.94986"
         style="font-style:normal;font-variant:normal;font-weight:normal;font-stretch:normal;font-size:12px;font-family:Calibri;-inkscape-font-specification:Calibri;fill:#595959;fill-opacity:1;">Total effective wirelength (using </tspan><tspan
         sodipodi:role="line"
         x="295.91211"
         y="-81.94986"
         id="tspan4712-31"
         style="font-style:normal;font-variant:normal;font-weight:normal;font-stretch:normal;font-size:12px;font-family:Calibri;-inkscape-font-specification:Calibri;fill:#595959;fill-opacity:1;">CFD model while routing)</tspan></text>
<text
       xml:space="preserve"
       style="font-style:normal;font-weight:normal;font-size:20px;line-height:125%;font-family:sans-serif;letter-spacing:0px;word-spacing:0px;fill:#595959;fill-opacity:1;stroke:none;stroke-width:1px;stroke-linecap:butt;stroke-linejoin:miter;stroke-opacity:1;"
       x="295.91211"
       y="-58.184509"
       id="text4708-3-8"
       sodipodi:linespacing="125%"
       transform="scale(1,-1)"><tspan
         sodipodi:role="line"
         x="295.91211"
         y="-58.184509"
         id="tspan4712-3-0"
         style="font-style:normal;font-variant:normal;font-weight:normal;font-stretch:normal;font-size:12px;font-family:Calibri;-inkscape-font-specification:Calibri;fill:#595959;fill-opacity:1;">Total wirelength (only considering</tspan><tspan
         sodipodi:role="line"
         x="295.91211"
         y="-43.184509"
         style="font-style:normal;font-variant:normal;font-weight:normal;font-stretch:normal;font-size:12px;font-family:Calibri;-inkscape-font-specification:Calibri;fill:#595959;fill-opacity:1;"
         id="tspan4768-4">actual length while routing)</tspan></text>
</g></svg>